<mxfile host="app.diagrams.net" modified="2020-09-15T10:36:17.965Z" agent="5.0 (Macintosh; Intel Mac OS X 10_15_6) AppleWebKit/537.36 (KHTML, like Gecko) Chrome/85.0.4183.102 Safari/537.36 Edg/85.0.564.51" etag="wbUorMfyZORwc1Tjzxsl" version="13.6.9" type="github" pages="4">
  <diagram id="sHyo-HsOnBTXvbaH--nx" name="DataModel DB">
    <mxGraphModel dx="2404" dy="-264" grid="0" gridSize="10" guides="1" tooltips="1" connect="1" arrows="1" fold="1" page="1" pageScale="1" pageWidth="827" pageHeight="1169" math="0" shadow="0">
      <root>
        <mxCell id="0" />
        <mxCell id="1" parent="0" />
        <mxCell id="D2LSu9hIvE2ZQXqcNUoY-1" value="" style="rounded=0;whiteSpace=wrap;html=1;fillColor=#f5f5f5;strokeColor=#666666;fontColor=#333333;labelBackgroundColor=none;" vertex="1" parent="1">
          <mxGeometry x="-812" y="1186" width="797" height="730" as="geometry" />
        </mxCell>
        <mxCell id="wv3KcR0LM4bBvchN6MWp-4" value="DEPOT&lt;br&gt;(0-9)" style="rounded=1;whiteSpace=wrap;html=1;fontStyle=1;" parent="1" vertex="1">
          <mxGeometry x="-538.0032519531255" y="1711" width="120" height="60" as="geometry" />
        </mxCell>
        <mxCell id="JXf9vZmwkOcOhgqJebvh-4" style="edgeStyle=orthogonalEdgeStyle;rounded=0;orthogonalLoop=1;jettySize=auto;html=1;exitX=0.5;exitY=1;exitDx=0;exitDy=0;entryX=0;entryY=0.5;entryDx=0;entryDy=0;" parent="1" source="wv3KcR0LM4bBvchN6MWp-10" target="JXf9vZmwkOcOhgqJebvh-2" edge="1">
          <mxGeometry relative="1" as="geometry" />
        </mxCell>
        <mxCell id="wv3KcR0LM4bBvchN6MWp-10" value="HYPOTHEEK-&lt;br&gt;GEVER&lt;br&gt;(1-9)" style="rounded=1;whiteSpace=wrap;html=1;fontStyle=1;" parent="1" vertex="1">
          <mxGeometry x="-658.003251953126" y="1530" width="120" height="60" as="geometry" />
        </mxCell>
        <mxCell id="wv3KcR0LM4bBvchN6MWp-11" style="edgeStyle=orthogonalEdgeStyle;rounded=0;orthogonalLoop=1;jettySize=auto;html=1;exitX=0.5;exitY=1;exitDx=0;exitDy=0;entryX=0;entryY=0.5;entryDx=0;entryDy=0;" parent="1" source="wv3KcR0LM4bBvchN6MWp-17" target="wv3KcR0LM4bBvchN6MWp-19" edge="1">
          <mxGeometry relative="1" as="geometry" />
        </mxCell>
        <mxCell id="wv3KcR0LM4bBvchN6MWp-12" style="edgeStyle=orthogonalEdgeStyle;rounded=0;orthogonalLoop=1;jettySize=auto;html=1;exitX=0.5;exitY=1;exitDx=0;exitDy=0;entryX=0;entryY=0.5;entryDx=0;entryDy=0;" parent="1" source="wv3KcR0LM4bBvchN6MWp-17" target="wv3KcR0LM4bBvchN6MWp-18" edge="1">
          <mxGeometry relative="1" as="geometry" />
        </mxCell>
        <mxCell id="wv3KcR0LM4bBvchN6MWp-13" style="edgeStyle=orthogonalEdgeStyle;rounded=0;orthogonalLoop=1;jettySize=auto;html=1;exitX=0.5;exitY=1;exitDx=0;exitDy=0;entryX=0;entryY=0.5;entryDx=0;entryDy=0;" parent="1" source="wv3KcR0LM4bBvchN6MWp-17" target="wv3KcR0LM4bBvchN6MWp-20" edge="1">
          <mxGeometry relative="1" as="geometry" />
        </mxCell>
        <mxCell id="wv3KcR0LM4bBvchN6MWp-14" style="edgeStyle=orthogonalEdgeStyle;rounded=0;orthogonalLoop=1;jettySize=auto;html=1;exitX=0.5;exitY=1;exitDx=0;exitDy=0;entryX=0;entryY=0.5;entryDx=0;entryDy=0;" parent="1" source="wv3KcR0LM4bBvchN6MWp-17" target="wv3KcR0LM4bBvchN6MWp-10" edge="1">
          <mxGeometry relative="1" as="geometry" />
        </mxCell>
        <mxCell id="wv3KcR0LM4bBvchN6MWp-15" style="edgeStyle=orthogonalEdgeStyle;rounded=0;orthogonalLoop=1;jettySize=auto;html=1;exitX=0.5;exitY=1;exitDx=0;exitDy=0;entryX=0;entryY=0.5;entryDx=0;entryDy=0;" parent="1" source="wv3KcR0LM4bBvchN6MWp-17" target="wv3KcR0LM4bBvchN6MWp-24" edge="1">
          <mxGeometry relative="1" as="geometry" />
        </mxCell>
        <mxCell id="wv3KcR0LM4bBvchN6MWp-17" value="BEHEER&lt;br&gt;BERICHT" style="rounded=1;whiteSpace=wrap;html=1;fontStyle=1;" parent="1" vertex="1">
          <mxGeometry x="-775.0032519531255" y="1215" width="120" height="60" as="geometry" />
        </mxCell>
        <mxCell id="wv3KcR0LM4bBvchN6MWp-18" value="BEHEER&lt;br&gt;VERZOEK&lt;br&gt;(1-1)" style="rounded=1;whiteSpace=wrap;html=1;fontStyle=1;" parent="1" vertex="1">
          <mxGeometry x="-658.003251953126" y="1343" width="120" height="60" as="geometry" />
        </mxCell>
        <mxCell id="wv3KcR0LM4bBvchN6MWp-19" value="HEADER&lt;br&gt;(1-1)" style="rounded=1;whiteSpace=wrap;html=1;fontStyle=1;" parent="1" vertex="1">
          <mxGeometry x="-658.003251953126" y="1278" width="120" height="60" as="geometry" />
        </mxCell>
        <mxCell id="JXf9vZmwkOcOhgqJebvh-3" style="edgeStyle=orthogonalEdgeStyle;rounded=0;orthogonalLoop=1;jettySize=auto;html=1;exitX=0.5;exitY=1;exitDx=0;exitDy=0;entryX=0;entryY=0.5;entryDx=0;entryDy=0;" parent="1" source="wv3KcR0LM4bBvchN6MWp-20" target="JXf9vZmwkOcOhgqJebvh-1" edge="1">
          <mxGeometry relative="1" as="geometry" />
        </mxCell>
        <mxCell id="wv3KcR0LM4bBvchN6MWp-20" value="TUSSEN-&lt;br&gt;PERSOON&lt;br&gt;(1-1)" style="rounded=1;whiteSpace=wrap;html=1;fontStyle=1;" parent="1" vertex="1">
          <mxGeometry x="-658.003251953126" y="1408" width="120" height="60" as="geometry" />
        </mxCell>
        <mxCell id="wv3KcR0LM4bBvchN6MWp-22" style="edgeStyle=orthogonalEdgeStyle;rounded=0;orthogonalLoop=1;jettySize=auto;html=1;exitX=0.5;exitY=1;exitDx=0;exitDy=0;entryX=0;entryY=0.5;entryDx=0;entryDy=0;" parent="1" source="wv3KcR0LM4bBvchN6MWp-24" target="wv3KcR0LM4bBvchN6MWp-4" edge="1">
          <mxGeometry relative="1" as="geometry" />
        </mxCell>
        <mxCell id="wv3KcR0LM4bBvchN6MWp-24" value="HYPOTHEEK&lt;br&gt;(1-9)" style="rounded=1;whiteSpace=wrap;html=1;fontStyle=1;" parent="1" vertex="1">
          <mxGeometry x="-658.003251953126" y="1651" width="120" height="60" as="geometry" />
        </mxCell>
        <mxCell id="JXf9vZmwkOcOhgqJebvh-1" value="CONTACT&lt;br&gt;INFO" style="rounded=1;whiteSpace=wrap;html=1;fontStyle=1;dashed=1;" parent="1" vertex="1">
          <mxGeometry x="-539.003251953126" y="1468" width="120" height="60" as="geometry" />
        </mxCell>
        <mxCell id="JXf9vZmwkOcOhgqJebvh-2" value="CONTACT&lt;br&gt;INFO" style="rounded=1;whiteSpace=wrap;html=1;fontStyle=1;dashed=1;" parent="1" vertex="1">
          <mxGeometry x="-538.003251953126" y="1590" width="120" height="60" as="geometry" />
        </mxCell>
        <mxCell id="j7eNeLo-KoBFPHYYIZsm-1" value="&lt;font style=&quot;font-size: 21px&quot;&gt;HDN BeheerBericht (BX)&lt;br&gt;&lt;/font&gt;&lt;span style=&quot;font-size: 24px&quot;&gt;&lt;i&gt;&lt;b&gt;Conceptueel Datamodel&lt;/b&gt;&lt;br&gt;Declaratie Bouwdepot&lt;br&gt;&lt;/i&gt;&lt;/span&gt;" style="text;html=1;strokeColor=none;fillColor=none;align=center;verticalAlign=middle;whiteSpace=wrap;rounded=0;" parent="1" vertex="1">
          <mxGeometry x="-515" y="1215" width="460" height="93" as="geometry" />
        </mxCell>
        <mxCell id="RyzWWjJ9MBmWIBpLD8zA-1" value="&lt;p&gt;&lt;b&gt;Door AEGON toegestane &#39;te wijzigen entiteiten&#39; binnen &#39;Declareren bouwdepot&#39;:&lt;/b&gt;&lt;/p&gt;&lt;p&gt;&lt;b&gt;&lt;br&gt;&lt;/b&gt;Hypothe(e)k(-en) met een actief&lt;br&gt;- Bouw- of energiedepot&lt;/p&gt;" style="text;html=1;fillColor=#fff2cc;spacing=5;spacingTop=-20;whiteSpace=wrap;overflow=hidden;rounded=0;verticalAlign=top;" vertex="1" parent="1">
          <mxGeometry x="-244" y="1784" width="204" height="111" as="geometry" />
        </mxCell>
      </root>
    </mxGraphModel>
  </diagram>
  <diagram id="KTVMma53WJgIOye32tk4" name="DataModel DB met mutaties">
    <mxGraphModel dx="3192" dy="189" grid="1" gridSize="10" guides="1" tooltips="1" connect="1" arrows="1" fold="1" page="1" pageScale="1" pageWidth="827" pageHeight="1169" math="0" shadow="0">
      <root>
        <mxCell id="Q8k3mvvSZgH3HEycwJfM-0" />
        <mxCell id="Q8k3mvvSZgH3HEycwJfM-1" parent="Q8k3mvvSZgH3HEycwJfM-0" />
        <mxCell id="YT46GgTB2qL46BlUGU6R-0" value="" style="rounded=0;whiteSpace=wrap;html=1;fillColor=#f5f5f5;strokeColor=#666666;fontColor=#333333;labelBackgroundColor=none;" parent="Q8k3mvvSZgH3HEycwJfM-1" vertex="1">
          <mxGeometry x="-817" y="1200" width="797" height="730" as="geometry" />
        </mxCell>
        <mxCell id="YT46GgTB2qL46BlUGU6R-32" style="edgeStyle=orthogonalEdgeStyle;rounded=0;orthogonalLoop=1;jettySize=auto;html=1;exitX=0.5;exitY=1;exitDx=0;exitDy=0;entryX=0;entryY=0.5;entryDx=0;entryDy=0;" parent="Q8k3mvvSZgH3HEycwJfM-1" source="YT46GgTB2qL46BlUGU6R-2" target="YT46GgTB2qL46BlUGU6R-28" edge="1">
          <mxGeometry relative="1" as="geometry" />
        </mxCell>
        <mxCell id="YT46GgTB2qL46BlUGU6R-2" value="DEPOT&lt;br&gt;(0-9)" style="rounded=1;whiteSpace=wrap;html=1;fontStyle=1;" parent="Q8k3mvvSZgH3HEycwJfM-1" vertex="1">
          <mxGeometry x="-555.0032519531255" y="1779" width="120" height="60" as="geometry" />
        </mxCell>
        <mxCell id="YT46GgTB2qL46BlUGU6R-4" style="edgeStyle=orthogonalEdgeStyle;rounded=0;orthogonalLoop=1;jettySize=auto;html=1;exitX=0.5;exitY=1;exitDx=0;exitDy=0;entryX=0;entryY=0.5;entryDx=0;entryDy=0;" parent="Q8k3mvvSZgH3HEycwJfM-1" source="YT46GgTB2qL46BlUGU6R-5" target="YT46GgTB2qL46BlUGU6R-25" edge="1">
          <mxGeometry relative="1" as="geometry" />
        </mxCell>
        <mxCell id="YT46GgTB2qL46BlUGU6R-5" value="HYPOTHEEK-&lt;br&gt;GEVER&lt;br&gt;(1-9)" style="rounded=1;whiteSpace=wrap;html=1;fontStyle=1;" parent="Q8k3mvvSZgH3HEycwJfM-1" vertex="1">
          <mxGeometry x="-675.003251953126" y="1535" width="120" height="60" as="geometry" />
        </mxCell>
        <mxCell id="YT46GgTB2qL46BlUGU6R-6" style="edgeStyle=orthogonalEdgeStyle;rounded=0;orthogonalLoop=1;jettySize=auto;html=1;exitX=0.5;exitY=1;exitDx=0;exitDy=0;entryX=0;entryY=0.5;entryDx=0;entryDy=0;" parent="Q8k3mvvSZgH3HEycwJfM-1" source="YT46GgTB2qL46BlUGU6R-11" target="YT46GgTB2qL46BlUGU6R-13" edge="1">
          <mxGeometry relative="1" as="geometry" />
        </mxCell>
        <mxCell id="YT46GgTB2qL46BlUGU6R-7" style="edgeStyle=orthogonalEdgeStyle;rounded=0;orthogonalLoop=1;jettySize=auto;html=1;exitX=0.5;exitY=1;exitDx=0;exitDy=0;entryX=0;entryY=0.5;entryDx=0;entryDy=0;" parent="Q8k3mvvSZgH3HEycwJfM-1" source="YT46GgTB2qL46BlUGU6R-11" target="YT46GgTB2qL46BlUGU6R-12" edge="1">
          <mxGeometry relative="1" as="geometry" />
        </mxCell>
        <mxCell id="YT46GgTB2qL46BlUGU6R-8" style="edgeStyle=orthogonalEdgeStyle;rounded=0;orthogonalLoop=1;jettySize=auto;html=1;exitX=0.5;exitY=1;exitDx=0;exitDy=0;entryX=0;entryY=0.5;entryDx=0;entryDy=0;" parent="Q8k3mvvSZgH3HEycwJfM-1" source="YT46GgTB2qL46BlUGU6R-11" target="YT46GgTB2qL46BlUGU6R-15" edge="1">
          <mxGeometry relative="1" as="geometry" />
        </mxCell>
        <mxCell id="YT46GgTB2qL46BlUGU6R-9" style="edgeStyle=orthogonalEdgeStyle;rounded=0;orthogonalLoop=1;jettySize=auto;html=1;exitX=0.5;exitY=1;exitDx=0;exitDy=0;entryX=0;entryY=0.5;entryDx=0;entryDy=0;" parent="Q8k3mvvSZgH3HEycwJfM-1" source="YT46GgTB2qL46BlUGU6R-11" target="YT46GgTB2qL46BlUGU6R-5" edge="1">
          <mxGeometry relative="1" as="geometry" />
        </mxCell>
        <mxCell id="YT46GgTB2qL46BlUGU6R-10" style="edgeStyle=orthogonalEdgeStyle;rounded=0;orthogonalLoop=1;jettySize=auto;html=1;exitX=0.5;exitY=1;exitDx=0;exitDy=0;entryX=0;entryY=0.5;entryDx=0;entryDy=0;" parent="Q8k3mvvSZgH3HEycwJfM-1" source="YT46GgTB2qL46BlUGU6R-11" target="YT46GgTB2qL46BlUGU6R-17" edge="1">
          <mxGeometry relative="1" as="geometry" />
        </mxCell>
        <mxCell id="YT46GgTB2qL46BlUGU6R-11" value="BEHEER&lt;br&gt;BERICHT" style="rounded=1;whiteSpace=wrap;html=1;fontStyle=1;" parent="Q8k3mvvSZgH3HEycwJfM-1" vertex="1">
          <mxGeometry x="-792.0032519531255" y="1220" width="120" height="60" as="geometry" />
        </mxCell>
        <mxCell id="YT46GgTB2qL46BlUGU6R-12" value="BEHEER&lt;br&gt;VERZOEK&lt;br&gt;(1-1)" style="rounded=1;whiteSpace=wrap;html=1;fontStyle=1;" parent="Q8k3mvvSZgH3HEycwJfM-1" vertex="1">
          <mxGeometry x="-675.003251953126" y="1348" width="120" height="60" as="geometry" />
        </mxCell>
        <mxCell id="YT46GgTB2qL46BlUGU6R-13" value="HEADER&lt;br&gt;(1-1)" style="rounded=1;whiteSpace=wrap;html=1;fontStyle=1;" parent="Q8k3mvvSZgH3HEycwJfM-1" vertex="1">
          <mxGeometry x="-675.003251953126" y="1283" width="120" height="60" as="geometry" />
        </mxCell>
        <mxCell id="YT46GgTB2qL46BlUGU6R-14" style="edgeStyle=orthogonalEdgeStyle;rounded=0;orthogonalLoop=1;jettySize=auto;html=1;exitX=0.5;exitY=1;exitDx=0;exitDy=0;entryX=0;entryY=0.5;entryDx=0;entryDy=0;" parent="Q8k3mvvSZgH3HEycwJfM-1" source="YT46GgTB2qL46BlUGU6R-15" target="YT46GgTB2qL46BlUGU6R-23" edge="1">
          <mxGeometry relative="1" as="geometry" />
        </mxCell>
        <mxCell id="YT46GgTB2qL46BlUGU6R-15" value="TUSSEN-&lt;br&gt;PERSOON&lt;br&gt;(1-1)" style="rounded=1;whiteSpace=wrap;html=1;fontStyle=1;" parent="Q8k3mvvSZgH3HEycwJfM-1" vertex="1">
          <mxGeometry x="-675.003251953126" y="1413" width="120" height="60" as="geometry" />
        </mxCell>
        <mxCell id="YT46GgTB2qL46BlUGU6R-16" style="edgeStyle=orthogonalEdgeStyle;rounded=0;orthogonalLoop=1;jettySize=auto;html=1;exitX=0.5;exitY=1;exitDx=0;exitDy=0;entryX=0;entryY=0.5;entryDx=0;entryDy=0;" parent="Q8k3mvvSZgH3HEycwJfM-1" source="YT46GgTB2qL46BlUGU6R-17" target="YT46GgTB2qL46BlUGU6R-2" edge="1">
          <mxGeometry relative="1" as="geometry" />
        </mxCell>
        <mxCell id="YT46GgTB2qL46BlUGU6R-30" style="edgeStyle=orthogonalEdgeStyle;rounded=0;orthogonalLoop=1;jettySize=auto;html=1;exitX=0.5;exitY=1;exitDx=0;exitDy=0;entryX=0;entryY=0.5;entryDx=0;entryDy=0;" parent="Q8k3mvvSZgH3HEycwJfM-1" source="YT46GgTB2qL46BlUGU6R-17" target="YT46GgTB2qL46BlUGU6R-27" edge="1">
          <mxGeometry relative="1" as="geometry" />
        </mxCell>
        <mxCell id="YT46GgTB2qL46BlUGU6R-17" value="HYPOTHEEK&lt;br&gt;(1-9)" style="rounded=1;whiteSpace=wrap;html=1;fontStyle=1;" parent="Q8k3mvvSZgH3HEycwJfM-1" vertex="1">
          <mxGeometry x="-675.003251953126" y="1656" width="120" height="60" as="geometry" />
        </mxCell>
        <mxCell id="YT46GgTB2qL46BlUGU6R-18" value="&lt;span style=&quot;font-weight: 400&quot;&gt;Bestaand&lt;/span&gt;" style="rounded=1;whiteSpace=wrap;html=1;fontStyle=1;fillColor=#f5f5f5;strokeColor=#666666;fontColor=#333333;" parent="Q8k3mvvSZgH3HEycwJfM-1" vertex="1">
          <mxGeometry x="-570" y="1549" width="85" height="14" as="geometry" />
        </mxCell>
        <mxCell id="YT46GgTB2qL46BlUGU6R-19" value="&lt;span style=&quot;font-weight: 400&quot;&gt;Wijzigen&lt;/span&gt;" style="rounded=1;whiteSpace=wrap;html=1;fontStyle=1;fillColor=#ffe6cc;strokeColor=#d79b00;" parent="Q8k3mvvSZgH3HEycwJfM-1" vertex="1">
          <mxGeometry x="-570" y="1673" width="85" height="14" as="geometry" />
        </mxCell>
        <mxCell id="YT46GgTB2qL46BlUGU6R-20" value="&lt;span style=&quot;font-weight: 400&quot;&gt;Wijzigen&lt;/span&gt;" style="rounded=1;whiteSpace=wrap;html=1;fontStyle=1;fillColor=#ffe6cc;strokeColor=#d79b00;" parent="Q8k3mvvSZgH3HEycwJfM-1" vertex="1">
          <mxGeometry x="-455" y="1793" width="85" height="14" as="geometry" />
        </mxCell>
        <mxCell id="YT46GgTB2qL46BlUGU6R-22" value="&lt;span style=&quot;font-weight: 400&quot;&gt;Indienen depot declaratie(s)&lt;/span&gt;" style="rounded=1;whiteSpace=wrap;html=1;fontStyle=1;fillColor=#ffe6cc;strokeColor=#d79b00;" parent="Q8k3mvvSZgH3HEycwJfM-1" vertex="1">
          <mxGeometry x="-570" y="1367" width="170" height="14" as="geometry" />
        </mxCell>
        <mxCell id="YT46GgTB2qL46BlUGU6R-23" value="CONTACT&lt;br&gt;INFO" style="rounded=1;whiteSpace=wrap;html=1;fontStyle=1;dashed=1;" parent="Q8k3mvvSZgH3HEycwJfM-1" vertex="1">
          <mxGeometry x="-556.003251953126" y="1473" width="120" height="60" as="geometry" />
        </mxCell>
        <mxCell id="YT46GgTB2qL46BlUGU6R-24" value="&lt;span style=&quot;font-weight: 400&quot;&gt;Bestaand&lt;/span&gt;" style="rounded=1;whiteSpace=wrap;html=1;fontStyle=1;fillColor=#f5f5f5;strokeColor=#666666;fontColor=#333333;" parent="Q8k3mvvSZgH3HEycwJfM-1" vertex="1">
          <mxGeometry x="-570" y="1423" width="85" height="14" as="geometry" />
        </mxCell>
        <mxCell id="YT46GgTB2qL46BlUGU6R-25" value="CONTACT&lt;br&gt;INFO" style="rounded=1;whiteSpace=wrap;html=1;fontStyle=1;dashed=1;" parent="Q8k3mvvSZgH3HEycwJfM-1" vertex="1">
          <mxGeometry x="-555.003251953126" y="1595" width="120" height="60" as="geometry" />
        </mxCell>
        <mxCell id="YT46GgTB2qL46BlUGU6R-27" value="HYPOTHEEK&lt;br&gt;WIJZIGING&lt;br&gt;(0-9)" style="rounded=1;whiteSpace=wrap;html=1;fontStyle=1;" parent="Q8k3mvvSZgH3HEycwJfM-1" vertex="1">
          <mxGeometry x="-555.003251953126" y="1716" width="120" height="60" as="geometry" />
        </mxCell>
        <mxCell id="YT46GgTB2qL46BlUGU6R-28" value="DEPOT&lt;br&gt;WIJZIGING&lt;br&gt;(0-9)" style="rounded=1;whiteSpace=wrap;html=1;fontStyle=1;" parent="Q8k3mvvSZgH3HEycwJfM-1" vertex="1">
          <mxGeometry x="-435.003251953126" y="1839" width="120" height="60" as="geometry" />
        </mxCell>
        <mxCell id="YT46GgTB2qL46BlUGU6R-34" value="&lt;span style=&quot;color: rgb(0 , 0 , 0) ; font-family: &amp;#34;helvetica&amp;#34; ; font-size: 12px ; font-style: normal ; font-weight: 400 ; letter-spacing: normal ; text-align: center ; text-indent: 0px ; text-transform: none ; word-spacing: 0px ; background-color: rgb(255 , 255 , 255) ; display: inline ; float: none&quot;&gt;&lt;span style=&quot;font-family: &amp;#34;helvetica&amp;#34; ; background-color: rgb(248 , 249 , 250)&quot;&gt;21-Indienen bouwdepot declaratie&lt;br&gt;&lt;/span&gt;&lt;span style=&quot;background-color: rgb(248 , 249 , 250)&quot;&gt;22-Indienen energiedepot declaratie&lt;/span&gt;&lt;br&gt;&lt;/span&gt;" style="text;whiteSpace=wrap;html=1;" parent="Q8k3mvvSZgH3HEycwJfM-1" vertex="1">
          <mxGeometry x="-298" y="1854" width="208" height="30" as="geometry" />
        </mxCell>
        <mxCell id="YT46GgTB2qL46BlUGU6R-36" value="&lt;span style=&quot;color: rgb(0 , 0 , 0) ; font-family: &amp;#34;helvetica&amp;#34; ; font-size: 12px ; font-style: normal ; font-weight: 400 ; letter-spacing: normal ; text-align: center ; text-indent: 0px ; text-transform: none ; word-spacing: 0px ; background-color: rgb(255 , 255 , 255) ; display: inline ; float: none&quot;&gt;22-Depot declaratie&lt;br&gt;&lt;/span&gt;" style="text;whiteSpace=wrap;html=1;" parent="Q8k3mvvSZgH3HEycwJfM-1" vertex="1">
          <mxGeometry x="-419" y="1731" width="149" height="30" as="geometry" />
        </mxCell>
        <mxCell id="P5zYkD7rexszqxHuDdwb-0" value="&lt;font style=&quot;font-size: 21px&quot;&gt;HDN BeheerBericht (BX)&lt;br&gt;&lt;/font&gt;&lt;span style=&quot;font-size: 24px&quot;&gt;&lt;i&gt;&lt;b&gt;Conceptueel Datamodel met Mutaties&lt;/b&gt;&lt;br&gt;Declaratie Bouwdepot&lt;br&gt;&lt;/i&gt;&lt;/span&gt;" style="text;html=1;strokeColor=none;fillColor=none;align=center;verticalAlign=middle;whiteSpace=wrap;rounded=0;" vertex="1" parent="Q8k3mvvSZgH3HEycwJfM-1">
          <mxGeometry x="-515" y="1215" width="460" height="93" as="geometry" />
        </mxCell>
      </root>
    </mxGraphModel>
  </diagram>
  <diagram id="aQScIsJYXVVr99Rhgn_U" name="MutatieModel DB">
    <mxGraphModel dx="6539" dy="905" grid="1" gridSize="10" guides="1" tooltips="1" connect="1" arrows="1" fold="1" page="1" pageScale="1" pageWidth="827" pageHeight="1169" math="0" shadow="0">
      <root>
        <mxCell id="zjRz5vi4FMOX-iklKWLo-0" />
        <mxCell id="zjRz5vi4FMOX-iklKWLo-1" parent="zjRz5vi4FMOX-iklKWLo-0" />
        <mxCell id="zjRz5vi4FMOX-iklKWLo-2" value="" style="rounded=0;whiteSpace=wrap;html=1;fillColor=#f5f5f5;strokeColor=#666666;fontColor=#333333;labelBackgroundColor=none;" parent="zjRz5vi4FMOX-iklKWLo-1" vertex="1">
          <mxGeometry x="-4940" y="10" width="790" height="940" as="geometry" />
        </mxCell>
        <mxCell id="HPV1CdNIMGCIwRdG_pAp-0" value="&lt;p&gt;&lt;b&gt;Door AEGON toegestane &#39;te wijzigen entiteiten&#39; binnen &#39;Extra Aflossen&#39;&lt;br&gt;&lt;/b&gt;Hypothe(e)k(-en) met&lt;br&gt;- Lening(-en)&lt;br&gt;- Leningde(e)l(-en)&lt;/p&gt;&lt;p&gt;&lt;b&gt;Door AEGON toegestane mutaties (mutatiecodes) binnen &#39;Omzetten hypotheek&#39; per onderdeel:&lt;/b&gt;&lt;/p&gt;&lt;p&gt;&lt;b&gt;BeheerVerzoek&lt;br&gt;&lt;/b&gt;-Indienen depot declaratie&lt;/p&gt;&lt;p&gt;&lt;b&gt;Hypotheek&lt;br&gt;&lt;/b&gt;22-Depot declaratie (wijzigen)&lt;/p&gt;&lt;p&gt;&lt;b&gt;Depot&lt;br&gt;&lt;/b&gt;21-Indienen bouwdepot declaratie (wijzigen)&lt;br&gt;22-Indienen energiedepot declaratie (wijzigen)&lt;/p&gt;" style="text;html=1;fillColor=#fff2cc;spacing=5;spacingTop=-20;whiteSpace=wrap;overflow=hidden;rounded=0;verticalAlign=top;" parent="zjRz5vi4FMOX-iklKWLo-1" vertex="1">
          <mxGeometry x="-4600.5" y="670" width="408" height="260" as="geometry" />
        </mxCell>
        <mxCell id="zjRz5vi4FMOX-iklKWLo-8" value="BEHEER&lt;br&gt;VERZOEK&lt;br&gt;(1-1)" style="rounded=1;whiteSpace=wrap;html=1;fontStyle=1;" parent="zjRz5vi4FMOX-iklKWLo-1" vertex="1">
          <mxGeometry x="-4608.003251953126" y="50.5" width="120" height="60" as="geometry" />
        </mxCell>
        <mxCell id="zjRz5vi4FMOX-iklKWLo-12" style="edgeStyle=orthogonalEdgeStyle;rounded=0;orthogonalLoop=1;jettySize=auto;html=1;exitX=0.5;exitY=1;exitDx=0;exitDy=0;entryX=0.5;entryY=0;entryDx=0;entryDy=0;fontSize=15;labelBackgroundColor=none;" parent="zjRz5vi4FMOX-iklKWLo-1" source="zjRz5vi4FMOX-iklKWLo-36" target="zjRz5vi4FMOX-iklKWLo-47" edge="1">
          <mxGeometry relative="1" as="geometry">
            <mxPoint x="-4692.5" y="485.50000000000045" as="sourcePoint" />
          </mxGeometry>
        </mxCell>
        <mxCell id="zjRz5vi4FMOX-iklKWLo-15" style="edgeStyle=orthogonalEdgeStyle;rounded=0;orthogonalLoop=1;jettySize=auto;html=1;exitX=0.5;exitY=1;exitDx=0;exitDy=0;fontSize=15;labelBackgroundColor=none;" parent="zjRz5vi4FMOX-iklKWLo-1" edge="1">
          <mxGeometry relative="1" as="geometry">
            <mxPoint x="-4855.5" y="408.5" as="sourcePoint" />
            <mxPoint x="-4855.5" y="408.5" as="targetPoint" />
          </mxGeometry>
        </mxCell>
        <mxCell id="zjRz5vi4FMOX-iklKWLo-17" style="edgeStyle=orthogonalEdgeStyle;rounded=0;orthogonalLoop=1;jettySize=auto;html=1;fontSize=15;labelBackgroundColor=none;exitX=0.5;exitY=1;exitDx=0;exitDy=0;" parent="zjRz5vi4FMOX-iklKWLo-1" source="zjRz5vi4FMOX-iklKWLo-29" target="zjRz5vi4FMOX-iklKWLo-36" edge="1">
          <mxGeometry relative="1" as="geometry">
            <mxPoint x="-4597.5" y="435.50000000000045" as="targetPoint" />
          </mxGeometry>
        </mxCell>
        <mxCell id="zjRz5vi4FMOX-iklKWLo-29" value="HYPOTHEKEN&lt;br&gt;(1-9)" style="rounded=1;whiteSpace=wrap;html=1;fontStyle=1;" parent="zjRz5vi4FMOX-iklKWLo-1" vertex="1">
          <mxGeometry x="-4828.51" y="237.49999999999994" width="120" height="60" as="geometry" />
        </mxCell>
        <mxCell id="zjRz5vi4FMOX-iklKWLo-36" value="HYPOTHEEK" style="rounded=1;whiteSpace=wrap;html=1;fontStyle=1;" parent="zjRz5vi4FMOX-iklKWLo-1" vertex="1">
          <mxGeometry x="-4829.01" y="398" width="121" height="60" as="geometry" />
        </mxCell>
        <mxCell id="n96Qk4NFJay3rHkRtNBA-0" style="edgeStyle=orthogonalEdgeStyle;rounded=0;orthogonalLoop=1;jettySize=auto;html=1;exitX=0.5;exitY=1;exitDx=0;exitDy=0;" edge="1" parent="zjRz5vi4FMOX-iklKWLo-1" source="zjRz5vi4FMOX-iklKWLo-47" target="zjRz5vi4FMOX-iklKWLo-76">
          <mxGeometry relative="1" as="geometry" />
        </mxCell>
        <mxCell id="n96Qk4NFJay3rHkRtNBA-1" style="edgeStyle=orthogonalEdgeStyle;rounded=0;orthogonalLoop=1;jettySize=auto;html=1;exitX=0.5;exitY=1;exitDx=0;exitDy=0;entryX=0.5;entryY=0;entryDx=0;entryDy=0;" edge="1" parent="zjRz5vi4FMOX-iklKWLo-1" source="zjRz5vi4FMOX-iklKWLo-47" target="HPV1CdNIMGCIwRdG_pAp-1">
          <mxGeometry relative="1" as="geometry" />
        </mxCell>
        <mxCell id="zjRz5vi4FMOX-iklKWLo-47" value="DEPOT&lt;br&gt;(0-9)" style="rounded=1;whiteSpace=wrap;html=1;fontStyle=1;" parent="zjRz5vi4FMOX-iklKWLo-1" vertex="1">
          <mxGeometry x="-4828.51" y="570" width="120" height="60" as="geometry" />
        </mxCell>
        <mxCell id="zjRz5vi4FMOX-iklKWLo-49" value="&lt;span style=&quot;font-weight: 400&quot;&gt;Wijzigen&lt;/span&gt;" style="rounded=1;whiteSpace=wrap;html=1;fontStyle=1;fillColor=#ffe6cc;strokeColor=#d79b00;" parent="zjRz5vi4FMOX-iklKWLo-1" vertex="1">
          <mxGeometry x="-4725" y="578" width="85" height="14" as="geometry" />
        </mxCell>
        <mxCell id="zjRz5vi4FMOX-iklKWLo-53" value="&lt;span style=&quot;font-weight: 400&quot;&gt;Wijzigen&lt;/span&gt;" style="rounded=1;whiteSpace=wrap;html=1;fontStyle=1;fillColor=#ffe6cc;strokeColor=#d79b00;" parent="zjRz5vi4FMOX-iklKWLo-1" vertex="1">
          <mxGeometry x="-4725" y="250" width="86" height="14" as="geometry" />
        </mxCell>
        <mxCell id="zjRz5vi4FMOX-iklKWLo-76" value="DEPOT" style="rounded=1;whiteSpace=wrap;html=1;fontStyle=1;" parent="zjRz5vi4FMOX-iklKWLo-1" vertex="1">
          <mxGeometry x="-4890.77" y="720.0000000000005" width="120" height="60" as="geometry" />
        </mxCell>
        <mxCell id="zjRz5vi4FMOX-iklKWLo-78" value="&lt;span style=&quot;font-family: &amp;#34;helvetica&amp;#34; ; font-weight: 400&quot;&gt;Indienen bouwdepot declaratie&amp;nbsp;&lt;br&gt;&lt;/span&gt;&lt;span style=&quot;font-family: &amp;#34;helvetica&amp;#34; ; font-weight: 400 ; text-align: left&quot;&gt;(21)&lt;br&gt;&lt;/span&gt;" style="rounded=1;whiteSpace=wrap;html=1;fontStyle=1;fillColor=#ffe6cc;strokeColor=#d79b00;" parent="zjRz5vi4FMOX-iklKWLo-1" vertex="1">
          <mxGeometry x="-4874.27" y="766.9999999999995" width="87" height="50" as="geometry" />
        </mxCell>
        <mxCell id="mbQPAR4nlTHtpaxma6dG-10" style="edgeStyle=orthogonalEdgeStyle;rounded=0;orthogonalLoop=1;jettySize=auto;html=1;exitX=0.5;exitY=1;exitDx=0;exitDy=0;entryX=0.5;entryY=0;entryDx=0;entryDy=0;" parent="zjRz5vi4FMOX-iklKWLo-1" source="zjRz5vi4FMOX-iklKWLo-123" target="mbQPAR4nlTHtpaxma6dG-4" edge="1">
          <mxGeometry relative="1" as="geometry" />
        </mxCell>
        <mxCell id="mbQPAR4nlTHtpaxma6dG-11" style="edgeStyle=orthogonalEdgeStyle;rounded=0;orthogonalLoop=1;jettySize=auto;html=1;exitX=0.5;exitY=1;exitDx=0;exitDy=0;" parent="zjRz5vi4FMOX-iklKWLo-1" source="zjRz5vi4FMOX-iklKWLo-123" target="mbQPAR4nlTHtpaxma6dG-3" edge="1">
          <mxGeometry relative="1" as="geometry" />
        </mxCell>
        <mxCell id="mbQPAR4nlTHtpaxma6dG-12" style="edgeStyle=orthogonalEdgeStyle;rounded=0;orthogonalLoop=1;jettySize=auto;html=1;exitX=0.5;exitY=1;exitDx=0;exitDy=0;entryX=0.5;entryY=0;entryDx=0;entryDy=0;" parent="zjRz5vi4FMOX-iklKWLo-1" source="zjRz5vi4FMOX-iklKWLo-123" target="zjRz5vi4FMOX-iklKWLo-29" edge="1">
          <mxGeometry relative="1" as="geometry" />
        </mxCell>
        <mxCell id="zjRz5vi4FMOX-iklKWLo-123" value="&lt;span style=&quot;font-weight: 400&quot;&gt;Indienen depot declaratie(s)&lt;/span&gt;" style="rounded=1;whiteSpace=wrap;html=1;fontStyle=1;fillColor=#ffe6cc;strokeColor=#d79b00;" parent="zjRz5vi4FMOX-iklKWLo-1" vertex="1">
          <mxGeometry x="-4590.5" y="90.50000000000011" width="85" height="50" as="geometry" />
        </mxCell>
        <mxCell id="HPV1CdNIMGCIwRdG_pAp-1" value="DEPOT" style="rounded=1;whiteSpace=wrap;html=1;fontStyle=1;" parent="zjRz5vi4FMOX-iklKWLo-1" vertex="1">
          <mxGeometry x="-4766.26" y="720.0000000000005" width="120" height="60" as="geometry" />
        </mxCell>
        <mxCell id="HPV1CdNIMGCIwRdG_pAp-2" value="&lt;span style=&quot;font-family: &amp;#34;helvetica&amp;#34; ; font-weight: 400&quot;&gt;Indienen energiedepot declaratie&amp;nbsp;&lt;br&gt;&lt;/span&gt;&lt;span style=&quot;font-family: &amp;#34;helvetica&amp;#34; ; font-weight: 400 ; text-align: left&quot;&gt;(22)&lt;/span&gt;&lt;span style=&quot;font-weight: 400 ; text-align: left&quot;&gt;&lt;br&gt;&lt;/span&gt;" style="rounded=1;whiteSpace=wrap;html=1;fontStyle=1;fillColor=#ffe6cc;strokeColor=#d79b00;" parent="zjRz5vi4FMOX-iklKWLo-1" vertex="1">
          <mxGeometry x="-4749.76" y="766.9999999999995" width="87" height="50" as="geometry" />
        </mxCell>
        <mxCell id="mbQPAR4nlTHtpaxma6dG-9" style="edgeStyle=orthogonalEdgeStyle;rounded=0;orthogonalLoop=1;jettySize=auto;html=1;exitX=0.5;exitY=1;exitDx=0;exitDy=0;entryX=0.5;entryY=0;entryDx=0;entryDy=0;" parent="zjRz5vi4FMOX-iklKWLo-1" source="mbQPAR4nlTHtpaxma6dG-3" target="mbQPAR4nlTHtpaxma6dG-6" edge="1">
          <mxGeometry relative="1" as="geometry" />
        </mxCell>
        <mxCell id="mbQPAR4nlTHtpaxma6dG-3" value="TUSSEN-&lt;br&gt;PERSOON&lt;br&gt;(1-1)" style="rounded=1;whiteSpace=wrap;html=1;fontStyle=1;" parent="zjRz5vi4FMOX-iklKWLo-1" vertex="1">
          <mxGeometry x="-4380" y="237.5" width="120" height="61" as="geometry" />
        </mxCell>
        <mxCell id="mbQPAR4nlTHtpaxma6dG-8" style="edgeStyle=orthogonalEdgeStyle;rounded=0;orthogonalLoop=1;jettySize=auto;html=1;exitX=0.5;exitY=1;exitDx=0;exitDy=0;entryX=0.5;entryY=0;entryDx=0;entryDy=0;" parent="zjRz5vi4FMOX-iklKWLo-1" source="mbQPAR4nlTHtpaxma6dG-4" target="mbQPAR4nlTHtpaxma6dG-7" edge="1">
          <mxGeometry relative="1" as="geometry" />
        </mxCell>
        <mxCell id="mbQPAR4nlTHtpaxma6dG-4" value="HYPOTHEEK-&lt;br&gt;GEVER&lt;br&gt;(1-9)" style="rounded=1;whiteSpace=wrap;html=1;fontStyle=1;" parent="zjRz5vi4FMOX-iklKWLo-1" vertex="1">
          <mxGeometry x="-4608.003251953126" y="237.5" width="120" height="60" as="geometry" />
        </mxCell>
        <mxCell id="mbQPAR4nlTHtpaxma6dG-6" value="TUSSEN-&lt;br&gt;PERSOON" style="rounded=1;whiteSpace=wrap;html=1;fontStyle=1;" parent="zjRz5vi4FMOX-iklKWLo-1" vertex="1">
          <mxGeometry x="-4380" y="400.5" width="120" height="61" as="geometry" />
        </mxCell>
        <mxCell id="mbQPAR4nlTHtpaxma6dG-7" value="HYPOTHEEK-&lt;br&gt;GEVER" style="rounded=1;whiteSpace=wrap;html=1;fontStyle=1;" parent="zjRz5vi4FMOX-iklKWLo-1" vertex="1">
          <mxGeometry x="-4608.003251953126" y="398" width="120" height="60" as="geometry" />
        </mxCell>
        <mxCell id="zjRz5vi4FMOX-iklKWLo-143" value="&lt;span style=&quot;font-weight: 400&quot;&gt;Depot&lt;br&gt;declaratie&lt;br&gt;(22)&lt;/span&gt;&lt;span style=&quot;font-weight: 400&quot;&gt;&lt;br&gt;&lt;/span&gt;" style="rounded=1;whiteSpace=wrap;html=1;fontStyle=1;fillColor=#ffe6cc;strokeColor=#d79b00;" parent="zjRz5vi4FMOX-iklKWLo-1" vertex="1">
          <mxGeometry x="-4812.51" y="450.0000000000001" width="86" height="50" as="geometry" />
        </mxCell>
        <mxCell id="UaTL2o-_eGHc7rhei8X_-3" style="edgeStyle=orthogonalEdgeStyle;rounded=0;orthogonalLoop=1;jettySize=auto;html=1;exitX=0.5;exitY=1;exitDx=0;exitDy=0;entryX=0.5;entryY=0;entryDx=0;entryDy=0;" parent="zjRz5vi4FMOX-iklKWLo-1" source="mbQPAR4nlTHtpaxma6dG-1" target="UaTL2o-_eGHc7rhei8X_-2" edge="1">
          <mxGeometry relative="1" as="geometry" />
        </mxCell>
        <mxCell id="mbQPAR4nlTHtpaxma6dG-1" value="&lt;span style=&quot;font-weight: 400&quot;&gt;Ongewijzigd&lt;br&gt;voortzetten&lt;/span&gt;" style="rounded=1;whiteSpace=wrap;html=1;fontStyle=1;fillColor=#f5f5f5;strokeColor=#666666;fontColor=#333333;" parent="zjRz5vi4FMOX-iklKWLo-1" vertex="1">
          <mxGeometry x="-4362.5" y="450" width="85" height="50" as="geometry" />
        </mxCell>
        <mxCell id="UaTL2o-_eGHc7rhei8X_-1" style="edgeStyle=orthogonalEdgeStyle;rounded=0;orthogonalLoop=1;jettySize=auto;html=1;exitX=0.5;exitY=1;exitDx=0;exitDy=0;entryX=0.5;entryY=0;entryDx=0;entryDy=0;" parent="zjRz5vi4FMOX-iklKWLo-1" source="mbQPAR4nlTHtpaxma6dG-2" target="UaTL2o-_eGHc7rhei8X_-0" edge="1">
          <mxGeometry relative="1" as="geometry" />
        </mxCell>
        <mxCell id="mbQPAR4nlTHtpaxma6dG-2" value="&lt;span style=&quot;font-weight: 400&quot;&gt;Ongewijzigd&lt;br&gt;voortzetten&lt;/span&gt;" style="rounded=1;whiteSpace=wrap;html=1;fontStyle=1;fillColor=#f5f5f5;strokeColor=#666666;fontColor=#333333;" parent="zjRz5vi4FMOX-iklKWLo-1" vertex="1">
          <mxGeometry x="-4590.5" y="450" width="85" height="50" as="geometry" />
        </mxCell>
        <mxCell id="mbQPAR4nlTHtpaxma6dG-13" value="&lt;span style=&quot;font-weight: 400&quot;&gt;Bestaand&lt;/span&gt;" style="rounded=1;whiteSpace=wrap;html=1;fontStyle=1;fillColor=#f5f5f5;strokeColor=#666666;fontColor=#333333;" parent="zjRz5vi4FMOX-iklKWLo-1" vertex="1">
          <mxGeometry x="-4500" y="250" width="85" height="14" as="geometry" />
        </mxCell>
        <mxCell id="mbQPAR4nlTHtpaxma6dG-14" value="&lt;span style=&quot;font-weight: 400&quot;&gt;Bestaand&lt;/span&gt;" style="rounded=1;whiteSpace=wrap;html=1;fontStyle=1;fillColor=#f5f5f5;strokeColor=#666666;fontColor=#333333;" parent="zjRz5vi4FMOX-iklKWLo-1" vertex="1">
          <mxGeometry x="-4277.5" y="250" width="85" height="14" as="geometry" />
        </mxCell>
        <mxCell id="UaTL2o-_eGHc7rhei8X_-0" value="CONTACT&lt;br&gt;INFO" style="rounded=1;whiteSpace=wrap;html=1;fontStyle=1;dashed=1;" parent="zjRz5vi4FMOX-iklKWLo-1" vertex="1">
          <mxGeometry x="-4608.003251953126" y="570" width="120" height="60" as="geometry" />
        </mxCell>
        <mxCell id="UaTL2o-_eGHc7rhei8X_-2" value="CONTACT&lt;br&gt;INFO" style="rounded=1;whiteSpace=wrap;html=1;fontStyle=1;dashed=1;" parent="zjRz5vi4FMOX-iklKWLo-1" vertex="1">
          <mxGeometry x="-4380.003251953126" y="570" width="120" height="60" as="geometry" />
        </mxCell>
        <mxCell id="AGdBLcVN3IPgxUJNqGOw-0" value="&lt;font style=&quot;font-size: 21px&quot;&gt;HDN BeheerBericht (BX)&lt;br&gt;&lt;/font&gt;&lt;span style=&quot;font-size: 24px&quot;&gt;&lt;i&gt;&lt;b&gt;Conceptueel Datamodel met Mutaties&lt;/b&gt;&lt;br&gt;Declaratie Bouwdepot&lt;br&gt;&lt;/i&gt;&lt;/span&gt;" style="text;html=1;strokeColor=none;fillColor=none;align=center;verticalAlign=middle;whiteSpace=wrap;rounded=0;" vertex="1" parent="zjRz5vi4FMOX-iklKWLo-1">
          <mxGeometry x="-4920" y="47.5" width="290" height="93" as="geometry" />
        </mxCell>
      </root>
    </mxGraphModel>
  </diagram>
  <diagram id="F4Bj1PzM60Bk-EOolInf" name="MutatieModel DB met attributen">
    <mxGraphModel dx="7665" dy="382" grid="1" gridSize="10" guides="1" tooltips="1" connect="1" arrows="1" fold="1" page="1" pageScale="1" pageWidth="827" pageHeight="1169" math="0" shadow="0">
      <root>
        <mxCell id="AcrLOxefnbmeObc_XqNP-0" />
        <mxCell id="AcrLOxefnbmeObc_XqNP-1" parent="AcrLOxefnbmeObc_XqNP-0" />
        <mxCell id="8ysP2DiqCDPwXy638j2L-0" value="" style="rounded=0;whiteSpace=wrap;html=1;fillColor=#f5f5f5;strokeColor=#666666;fontColor=#333333;labelBackgroundColor=none;" parent="AcrLOxefnbmeObc_XqNP-1" vertex="1">
          <mxGeometry x="-4943" y="1188" width="790" height="882" as="geometry" />
        </mxCell>
        <mxCell id="0jRfb63-4cVxN_KbxhcH-0" value="" style="rounded=0;whiteSpace=wrap;html=1;fillColor=#f5f5f5;strokeColor=#666666;fontColor=#333333;labelBackgroundColor=none;" vertex="1" parent="AcrLOxefnbmeObc_XqNP-1">
          <mxGeometry x="-4946" y="1188" width="790" height="940" as="geometry" />
        </mxCell>
        <mxCell id="0SzVTgEvTkFGER8Whcqq-4" value="&lt;b style=&quot;color: rgb(0 , 0 , 0) ; text-align: left&quot;&gt;&lt;font color=&quot;#333333&quot; face=&quot;helvetica&quot;&gt;DepotNr*&lt;/font&gt;&lt;br&gt;&lt;/b&gt;&lt;font face=&quot;helvetica&quot; style=&quot;text-align: left&quot;&gt;&lt;i&gt;&lt;font color=&quot;#333333&quot;&gt;&lt;span style=&quot;font-weight: 400&quot;&gt;MutatieCode*= 22&lt;/span&gt;&lt;/font&gt;&lt;br&gt;&lt;div style=&quot;text-align: left&quot;&gt;&lt;span style=&quot;font-family: &amp;#34;helvetica&amp;#34; ; text-align: center ; font-weight: 400&quot;&gt;&lt;font color=&quot;#000000&quot;&gt;TBD&lt;/font&gt;&lt;/span&gt;&lt;/div&gt;&lt;/i&gt;&lt;/font&gt;" style="rounded=1;whiteSpace=wrap;html=1;fontStyle=1;fontColor=#808080;verticalAlign=top;" parent="AcrLOxefnbmeObc_XqNP-1" vertex="1">
          <mxGeometry x="-4768.5" y="1900" width="120" height="110" as="geometry" />
        </mxCell>
        <mxCell id="0SzVTgEvTkFGER8Whcqq-5" value="&lt;b style=&quot;color: rgb(0 , 0 , 0) ; text-align: left&quot;&gt;&lt;font color=&quot;#333333&quot; face=&quot;helvetica&quot;&gt;DepotNr**&lt;/font&gt;&lt;br&gt;&lt;/b&gt;&lt;font color=&quot;#333333&quot; face=&quot;helvetica&quot; style=&quot;font-weight: 400 ; text-align: left&quot;&gt;&lt;i&gt;MutatieCode*= 21&lt;br&gt;&lt;div style=&quot;text-align: left&quot;&gt;&lt;span style=&quot;color: rgb(0 , 0 , 0) ; font-family: &amp;#34;helvetica&amp;#34; ; text-align: center&quot;&gt;TBD&lt;/span&gt;&lt;/div&gt;&lt;/i&gt;&lt;/font&gt;" style="rounded=1;whiteSpace=wrap;html=1;fontStyle=1;fontColor=#808080;verticalAlign=top;" parent="AcrLOxefnbmeObc_XqNP-1" vertex="1">
          <mxGeometry x="-4900" y="1900" width="120" height="110" as="geometry" />
        </mxCell>
        <mxCell id="0SzVTgEvTkFGER8Whcqq-8" value="&lt;font color=&quot;#000000&quot; style=&quot;font-weight: 400 ; text-align: left&quot;&gt;&lt;b&gt;TussenpersoonNr*&lt;br&gt;&lt;/b&gt;&lt;/font&gt;&lt;font color=&quot;#000000&quot; style=&quot;font-weight: 400 ; text-align: left&quot;&gt;&lt;i&gt;MutatieCode*=50&lt;br&gt;&lt;/i&gt;&lt;/font&gt;&lt;font color=&quot;#000000&quot; style=&quot;font-weight: 400 ; text-align: left&quot;&gt;Bedrijfsnaam&lt;br&gt;&lt;/font&gt;&lt;font color=&quot;#000000&quot; style=&quot;font-weight: 400 ; text-align: left&quot;&gt;TelefoonNrWerk&lt;br&gt;&lt;/font&gt;&lt;font color=&quot;#000000&quot; style=&quot;font-weight: 400 ; text-align: left&quot;&gt;Contactpersoon Voorletters*&lt;br&gt;&lt;/font&gt;&lt;font color=&quot;#000000&quot; style=&quot;font-weight: 400 ; text-align: left&quot;&gt;Contactpersoon Voornaam&lt;br&gt;&lt;/font&gt;&lt;font color=&quot;#000000&quot; style=&quot;font-weight: 400 ; text-align: left&quot;&gt;Contactpersoon Tussenvoegsels&lt;br&gt;&lt;/font&gt;&lt;font color=&quot;#000000&quot; style=&quot;font-weight: 400 ; text-align: left&quot;&gt;Contactpersoon Achternaam*&lt;br&gt;&lt;/font&gt;&lt;font color=&quot;#000000&quot; style=&quot;font-weight: 400 ; text-align: left&quot;&gt;Contactpersoon Mobiele nummer&lt;br&gt;&lt;/font&gt;&lt;font color=&quot;#000000&quot; style=&quot;font-weight: 400 ; text-align: left&quot;&gt;Contactpersoon E-mailadres*&lt;/font&gt;" style="rounded=1;whiteSpace=wrap;html=1;fontStyle=1;fontColor=#808080;verticalAlign=top;" parent="AcrLOxefnbmeObc_XqNP-1" vertex="1">
          <mxGeometry x="-4420.5" y="1578.0000000000005" width="195" height="150" as="geometry" />
        </mxCell>
        <mxCell id="0SzVTgEvTkFGER8Whcqq-10" value="&lt;font color=&quot;#000000&quot; style=&quot;font-weight: 400 ; text-align: left&quot;&gt;&lt;b&gt;HypotheekgeverNr*&lt;br&gt;&lt;/b&gt;&lt;/font&gt;&lt;font color=&quot;#000000&quot; style=&quot;font-weight: 400 ; text-align: left&quot;&gt;&lt;i&gt;MutatieCode*=50&lt;br&gt;&lt;/i&gt;&lt;/font&gt;&lt;font color=&quot;#000000&quot; style=&quot;font-weight: 400 ; text-align: left&quot;&gt;Voorletters*&lt;br&gt;&lt;/font&gt;&lt;font color=&quot;#000000&quot; style=&quot;font-weight: 400 ; text-align: left&quot;&gt;Voornaam&lt;br&gt;&lt;/font&gt;&lt;font color=&quot;#000000&quot; style=&quot;font-weight: 400 ; text-align: left&quot;&gt;Tussenvoegsels&lt;br&gt;&lt;/font&gt;&lt;font color=&quot;#000000&quot; style=&quot;font-weight: 400 ; text-align: left&quot;&gt;Achternaam*&lt;br&gt;&lt;/font&gt;&lt;font color=&quot;#000000&quot; style=&quot;font-weight: 400 ; text-align: left&quot;&gt;Telefoonnr&lt;br&gt;&lt;/font&gt;&lt;font color=&quot;#000000&quot; style=&quot;font-weight: 400 ; text-align: left&quot;&gt;Mobiele nr*&lt;br&gt;&lt;/font&gt;&lt;font color=&quot;#000000&quot; style=&quot;font-weight: 400 ; text-align: left&quot;&gt;E-mailadres*&lt;/font&gt;" style="rounded=1;whiteSpace=wrap;html=1;fontStyle=1;fontColor=#808080;verticalAlign=top;" parent="AcrLOxefnbmeObc_XqNP-1" vertex="1">
          <mxGeometry x="-4648.5" y="1576.0000000000007" width="195" height="150" as="geometry" />
        </mxCell>
        <mxCell id="8ysP2DiqCDPwXy638j2L-3" value="BEHEER&lt;br&gt;VERZOEK&lt;br&gt;(1-1)" style="rounded=1;whiteSpace=wrap;html=1;fontStyle=1;" parent="AcrLOxefnbmeObc_XqNP-1" vertex="1">
          <mxGeometry x="-4611.003251953126" y="1228.5" width="120" height="60" as="geometry" />
        </mxCell>
        <mxCell id="8ysP2DiqCDPwXy638j2L-4" style="edgeStyle=orthogonalEdgeStyle;rounded=0;orthogonalLoop=1;jettySize=auto;html=1;exitX=0.5;exitY=1;exitDx=0;exitDy=0;entryX=0.5;entryY=0;entryDx=0;entryDy=0;fontSize=15;labelBackgroundColor=none;" parent="AcrLOxefnbmeObc_XqNP-1" source="8ysP2DiqCDPwXy638j2L-8" edge="1">
          <mxGeometry relative="1" as="geometry">
            <mxPoint x="-4695.5" y="1663.5000000000005" as="sourcePoint" />
            <mxPoint x="-4771.51" y="1748" as="targetPoint" />
          </mxGeometry>
        </mxCell>
        <mxCell id="8ysP2DiqCDPwXy638j2L-5" style="edgeStyle=orthogonalEdgeStyle;rounded=0;orthogonalLoop=1;jettySize=auto;html=1;exitX=0.5;exitY=1;exitDx=0;exitDy=0;fontSize=15;labelBackgroundColor=none;" parent="AcrLOxefnbmeObc_XqNP-1" edge="1">
          <mxGeometry relative="1" as="geometry">
            <mxPoint x="-4858.5" y="1586.5" as="sourcePoint" />
            <mxPoint x="-4858.5" y="1586.5" as="targetPoint" />
          </mxGeometry>
        </mxCell>
        <mxCell id="8ysP2DiqCDPwXy638j2L-6" style="edgeStyle=orthogonalEdgeStyle;rounded=0;orthogonalLoop=1;jettySize=auto;html=1;fontSize=15;labelBackgroundColor=none;exitX=0.5;exitY=1;exitDx=0;exitDy=0;" parent="AcrLOxefnbmeObc_XqNP-1" source="8ysP2DiqCDPwXy638j2L-7" target="8ysP2DiqCDPwXy638j2L-8" edge="1">
          <mxGeometry relative="1" as="geometry">
            <mxPoint x="-4600.5" y="1613.5000000000005" as="targetPoint" />
          </mxGeometry>
        </mxCell>
        <mxCell id="8ysP2DiqCDPwXy638j2L-7" value="HYPOTHEKEN&lt;br&gt;(1-9)" style="rounded=1;whiteSpace=wrap;html=1;fontStyle=1;" parent="AcrLOxefnbmeObc_XqNP-1" vertex="1">
          <mxGeometry x="-4831.51" y="1415.5" width="120" height="60" as="geometry" />
        </mxCell>
        <mxCell id="8ysP2DiqCDPwXy638j2L-8" value="HYPOTHEEK" style="rounded=1;whiteSpace=wrap;html=1;fontStyle=1;" parent="AcrLOxefnbmeObc_XqNP-1" vertex="1">
          <mxGeometry x="-4832.01" y="1576" width="121" height="60" as="geometry" />
        </mxCell>
        <mxCell id="8ysP2DiqCDPwXy638j2L-12" value="&lt;span style=&quot;font-weight: 400&quot;&gt;Wijzigen&lt;/span&gt;" style="rounded=1;whiteSpace=wrap;html=1;fontStyle=1;fillColor=#ffe6cc;strokeColor=#d79b00;" parent="AcrLOxefnbmeObc_XqNP-1" vertex="1">
          <mxGeometry x="-4728" y="1428" width="86" height="14" as="geometry" />
        </mxCell>
        <mxCell id="8ysP2DiqCDPwXy638j2L-21" style="edgeStyle=orthogonalEdgeStyle;rounded=0;orthogonalLoop=1;jettySize=auto;html=1;exitX=0.5;exitY=1;exitDx=0;exitDy=0;entryX=0.5;entryY=0;entryDx=0;entryDy=0;" parent="AcrLOxefnbmeObc_XqNP-1" source="8ysP2DiqCDPwXy638j2L-24" target="8ysP2DiqCDPwXy638j2L-31" edge="1">
          <mxGeometry relative="1" as="geometry" />
        </mxCell>
        <mxCell id="8ysP2DiqCDPwXy638j2L-22" style="edgeStyle=orthogonalEdgeStyle;rounded=0;orthogonalLoop=1;jettySize=auto;html=1;exitX=0.5;exitY=1;exitDx=0;exitDy=0;" parent="AcrLOxefnbmeObc_XqNP-1" source="8ysP2DiqCDPwXy638j2L-24" target="8ysP2DiqCDPwXy638j2L-29" edge="1">
          <mxGeometry relative="1" as="geometry" />
        </mxCell>
        <mxCell id="8ysP2DiqCDPwXy638j2L-23" style="edgeStyle=orthogonalEdgeStyle;rounded=0;orthogonalLoop=1;jettySize=auto;html=1;exitX=0.5;exitY=1;exitDx=0;exitDy=0;entryX=0.5;entryY=0;entryDx=0;entryDy=0;" parent="AcrLOxefnbmeObc_XqNP-1" source="8ysP2DiqCDPwXy638j2L-24" target="8ysP2DiqCDPwXy638j2L-7" edge="1">
          <mxGeometry relative="1" as="geometry" />
        </mxCell>
        <mxCell id="8ysP2DiqCDPwXy638j2L-24" value="&lt;span style=&quot;font-weight: 400&quot;&gt;Indienen depot declaratie(s)&lt;/span&gt;" style="rounded=1;whiteSpace=wrap;html=1;fontStyle=1;fillColor=#ffe6cc;strokeColor=#d79b00;" parent="AcrLOxefnbmeObc_XqNP-1" vertex="1">
          <mxGeometry x="-4593.5" y="1268.5" width="85" height="50" as="geometry" />
        </mxCell>
        <mxCell id="8ysP2DiqCDPwXy638j2L-43" style="edgeStyle=orthogonalEdgeStyle;rounded=0;orthogonalLoop=1;jettySize=auto;html=1;exitX=0.5;exitY=1;exitDx=0;exitDy=0;entryX=0.5;entryY=0;entryDx=0;entryDy=0;" parent="AcrLOxefnbmeObc_XqNP-1" source="8ysP2DiqCDPwXy638j2L-29" target="0SzVTgEvTkFGER8Whcqq-8" edge="1">
          <mxGeometry relative="1" as="geometry" />
        </mxCell>
        <mxCell id="8ysP2DiqCDPwXy638j2L-29" value="TUSSEN-&lt;br&gt;PERSOON&lt;br&gt;(1-1)" style="rounded=1;whiteSpace=wrap;html=1;fontStyle=1;" parent="AcrLOxefnbmeObc_XqNP-1" vertex="1">
          <mxGeometry x="-4383" y="1415.5" width="120" height="61" as="geometry" />
        </mxCell>
        <mxCell id="8ysP2DiqCDPwXy638j2L-44" style="edgeStyle=orthogonalEdgeStyle;rounded=0;orthogonalLoop=1;jettySize=auto;html=1;exitX=0.5;exitY=1;exitDx=0;exitDy=0;entryX=0.5;entryY=0;entryDx=0;entryDy=0;" parent="AcrLOxefnbmeObc_XqNP-1" source="8ysP2DiqCDPwXy638j2L-31" target="0SzVTgEvTkFGER8Whcqq-10" edge="1">
          <mxGeometry relative="1" as="geometry" />
        </mxCell>
        <mxCell id="8ysP2DiqCDPwXy638j2L-31" value="HYPOTHEEK-&lt;br&gt;GEVER&lt;br&gt;(1-9)" style="rounded=1;whiteSpace=wrap;html=1;fontStyle=1;" parent="AcrLOxefnbmeObc_XqNP-1" vertex="1">
          <mxGeometry x="-4611.003251953126" y="1415.5" width="120" height="60" as="geometry" />
        </mxCell>
        <mxCell id="8ysP2DiqCDPwXy638j2L-34" value="&lt;span style=&quot;font-weight: 400&quot;&gt;Depot&lt;/span&gt;&lt;br style=&quot;font-weight: 400&quot;&gt;&lt;span style=&quot;font-weight: 400&quot;&gt;declaratie&lt;/span&gt;&lt;br style=&quot;font-weight: 400&quot;&gt;&lt;span style=&quot;font-weight: 400&quot;&gt;(22)&lt;/span&gt;&lt;span style=&quot;font-weight: 400&quot;&gt;&lt;br&gt;&lt;/span&gt;" style="rounded=1;whiteSpace=wrap;html=1;fontStyle=1;fillColor=#ffe6cc;strokeColor=#d79b00;" parent="AcrLOxefnbmeObc_XqNP-1" vertex="1">
          <mxGeometry x="-4815.51" y="1628" width="86" height="50" as="geometry" />
        </mxCell>
        <mxCell id="8ysP2DiqCDPwXy638j2L-36" value="&lt;span style=&quot;font-weight: 400&quot;&gt;Ongewijzigd&lt;/span&gt;&lt;br style=&quot;font-weight: 400&quot;&gt;&lt;span style=&quot;font-weight: 400&quot;&gt;voortzetten&lt;br&gt;(50)&lt;br&gt;&lt;/span&gt;" style="rounded=1;whiteSpace=wrap;html=1;fontStyle=1;fillColor=#f5f5f5;strokeColor=#666666;fontColor=#333333;" parent="AcrLOxefnbmeObc_XqNP-1" vertex="1">
          <mxGeometry x="-4365.5" y="1726" width="85" height="50" as="geometry" />
        </mxCell>
        <mxCell id="8ysP2DiqCDPwXy638j2L-38" value="&lt;span style=&quot;font-weight: 400&quot;&gt;Ongewijzigd&lt;/span&gt;&lt;br style=&quot;font-weight: 400&quot;&gt;&lt;span style=&quot;font-weight: 400&quot;&gt;voortzetten&lt;br&gt;(50)&lt;/span&gt;" style="rounded=1;whiteSpace=wrap;html=1;fontStyle=1;fillColor=#f5f5f5;strokeColor=#666666;fontColor=#333333;" parent="AcrLOxefnbmeObc_XqNP-1" vertex="1">
          <mxGeometry x="-4594" y="1722" width="85" height="50" as="geometry" />
        </mxCell>
        <mxCell id="8ysP2DiqCDPwXy638j2L-39" value="&lt;span style=&quot;font-weight: 400&quot;&gt;Bestaand&lt;/span&gt;" style="rounded=1;whiteSpace=wrap;html=1;fontStyle=1;fillColor=#f5f5f5;strokeColor=#666666;fontColor=#333333;" parent="AcrLOxefnbmeObc_XqNP-1" vertex="1">
          <mxGeometry x="-4503" y="1428" width="85" height="14" as="geometry" />
        </mxCell>
        <mxCell id="8ysP2DiqCDPwXy638j2L-40" value="&lt;span style=&quot;font-weight: 400&quot;&gt;Bestaand&lt;/span&gt;" style="rounded=1;whiteSpace=wrap;html=1;fontStyle=1;fillColor=#f5f5f5;strokeColor=#666666;fontColor=#333333;" parent="AcrLOxefnbmeObc_XqNP-1" vertex="1">
          <mxGeometry x="-4280.5" y="1428" width="85" height="14" as="geometry" />
        </mxCell>
        <mxCell id="ypFpEEc3B-a0PxD1UqM6-0" style="edgeStyle=orthogonalEdgeStyle;rounded=0;orthogonalLoop=1;jettySize=auto;html=1;exitX=0.5;exitY=1;exitDx=0;exitDy=0;entryX=0.5;entryY=0;entryDx=0;entryDy=0;" edge="1" parent="AcrLOxefnbmeObc_XqNP-1" source="ypFpEEc3B-a0PxD1UqM6-2" target="0SzVTgEvTkFGER8Whcqq-5">
          <mxGeometry relative="1" as="geometry">
            <mxPoint x="-4836.833333333333" y="1900.0000000000005" as="targetPoint" />
          </mxGeometry>
        </mxCell>
        <mxCell id="ypFpEEc3B-a0PxD1UqM6-1" style="edgeStyle=orthogonalEdgeStyle;rounded=0;orthogonalLoop=1;jettySize=auto;html=1;exitX=0.5;exitY=1;exitDx=0;exitDy=0;entryX=0.5;entryY=0;entryDx=0;entryDy=0;" edge="1" parent="AcrLOxefnbmeObc_XqNP-1" source="ypFpEEc3B-a0PxD1UqM6-2" target="0SzVTgEvTkFGER8Whcqq-4">
          <mxGeometry relative="1" as="geometry">
            <mxPoint x="-4712.38" y="1900.0000000000005" as="targetPoint" />
          </mxGeometry>
        </mxCell>
        <mxCell id="ypFpEEc3B-a0PxD1UqM6-2" value="DEPOT&lt;br&gt;(0-9)" style="rounded=1;whiteSpace=wrap;html=1;fontStyle=1;" vertex="1" parent="AcrLOxefnbmeObc_XqNP-1">
          <mxGeometry x="-4834.63" y="1750" width="120" height="60" as="geometry" />
        </mxCell>
        <mxCell id="ypFpEEc3B-a0PxD1UqM6-3" value="&lt;span style=&quot;font-weight: 400&quot;&gt;Wijzigen&lt;/span&gt;" style="rounded=1;whiteSpace=wrap;html=1;fontStyle=1;fillColor=#ffe6cc;strokeColor=#d79b00;" vertex="1" parent="AcrLOxefnbmeObc_XqNP-1">
          <mxGeometry x="-4731.12" y="1758" width="85" height="14" as="geometry" />
        </mxCell>
        <mxCell id="ypFpEEc3B-a0PxD1UqM6-5" value="&lt;span style=&quot;font-family: &amp;#34;helvetica&amp;#34; ; font-weight: 400&quot;&gt;Indienen bouwdepot declaratie&amp;nbsp;&lt;br&gt;&lt;/span&gt;&lt;span style=&quot;font-family: &amp;#34;helvetica&amp;#34; ; font-weight: 400 ; text-align: left&quot;&gt;(21)&lt;br&gt;&lt;/span&gt;" style="rounded=1;whiteSpace=wrap;html=1;fontStyle=1;fillColor=#ffe6cc;strokeColor=#d79b00;" vertex="1" parent="AcrLOxefnbmeObc_XqNP-1">
          <mxGeometry x="-4883.5" y="1999.9999999999995" width="87" height="50" as="geometry" />
        </mxCell>
        <mxCell id="ypFpEEc3B-a0PxD1UqM6-7" value="&lt;span style=&quot;font-family: &amp;#34;helvetica&amp;#34; ; font-weight: 400&quot;&gt;Indienen energiedepot declaratie&amp;nbsp;&lt;br&gt;&lt;/span&gt;&lt;span style=&quot;font-family: &amp;#34;helvetica&amp;#34; ; font-weight: 400 ; text-align: left&quot;&gt;(22)&lt;/span&gt;&lt;span style=&quot;font-weight: 400 ; text-align: left&quot;&gt;&lt;br&gt;&lt;/span&gt;" style="rounded=1;whiteSpace=wrap;html=1;fontStyle=1;fillColor=#ffe6cc;strokeColor=#d79b00;" vertex="1" parent="AcrLOxefnbmeObc_XqNP-1">
          <mxGeometry x="-4752" y="1999.9999999999995" width="87" height="50" as="geometry" />
        </mxCell>
        <mxCell id="3en_DAhzvSF_k-zMyJWv-0" value="&lt;font style=&quot;font-size: 21px&quot;&gt;HDN BeheerBericht (BX)&lt;br&gt;&lt;/font&gt;&lt;span style=&quot;font-size: 24px&quot;&gt;&lt;i&gt;&lt;b&gt;Conceptueel Datamodel met Mutaties&lt;/b&gt;&lt;br&gt;Declaratie Bouwdepot&lt;br&gt;&lt;/i&gt;&lt;/span&gt;" style="text;html=1;strokeColor=none;fillColor=none;align=center;verticalAlign=middle;whiteSpace=wrap;rounded=0;" vertex="1" parent="AcrLOxefnbmeObc_XqNP-1">
          <mxGeometry x="-4919.63" y="1228.5" width="290" height="93" as="geometry" />
        </mxCell>
        <mxCell id="Q_KV6IpvHMNN_2x8jXFP-0" value="&lt;p&gt;&lt;b&gt;Door AEGON toegestane &#39;te wijzigen entiteiten&#39; binnen &#39;Extra Aflossen&#39;&lt;br&gt;&lt;/b&gt;Hypothe(e)k(-en) met&lt;br&gt;- Lening(-en)&lt;br&gt;- Leningde(e)l(-en)&lt;/p&gt;&lt;p&gt;&lt;b&gt;Door AEGON toegestane mutaties (mutatiecodes) binnen &#39;Omzetten hypotheek&#39; per onderdeel:&lt;/b&gt;&lt;/p&gt;&lt;p&gt;&lt;b&gt;BeheerVerzoek&lt;br&gt;&lt;/b&gt;-Indienen depot declaratie&lt;/p&gt;&lt;p&gt;&lt;b&gt;Hypotheek&lt;br&gt;&lt;/b&gt;22-Depot declaratie (wijzigen)&lt;/p&gt;&lt;p&gt;&lt;b&gt;Depot&lt;br&gt;&lt;/b&gt;21-Indienen bouwdepot declaratie (wijzigen)&lt;br&gt;22-Indienen energiedepot declaratie (wijzigen)&lt;/p&gt;" style="text;html=1;fillColor=#fff2cc;spacing=5;spacingTop=-20;whiteSpace=wrap;overflow=hidden;rounded=0;verticalAlign=top;" vertex="1" parent="AcrLOxefnbmeObc_XqNP-1">
          <mxGeometry x="-4594" y="1840" width="408" height="260" as="geometry" />
        </mxCell>
      </root>
    </mxGraphModel>
  </diagram>
</mxfile>
